<?xml version="1.0" encoding="UTF-8"?>
<svg id="Layer_2" data-name="Layer 2" xmlns="http://www.w3.org/2000/svg" viewBox="0 0 1086.45 422.39">
  <defs>
    <style>
      .cls-1 {
        fill: #f4570f;
      }

      .cls-2 {
        opacity: 0;
      }
    </style>
  </defs>
  <g id="Layer_1-2" data-name="Layer 1">
    <rect class="cls-2" width="1086.45" height="422.39"/>
    <path class="cls-1" d="M341.58,141.49c.14-.41.53-.69.97-.69h79.56c.43,0,.81.26.96.66l52.03,138.75c.25.67-.24,1.38-.96,1.38h-63.34c-.46,0-.87-.31-.99-.76l-4.99-18.48c-.12-.45-.53-.76-.99-.76h-44.62c-.47,0-.88.32-.99.78l-4.61,18.45c-.11.46-.52.78-.99.78h-57.76c-.7,0-1.2-.69-.97-1.36M392.92,222.34c-3.45-14.54-7.26-29.72-10.89-42.4-.13-.44-.53-.74-.98-.74h0c-.48,0-.9.33-1,.8-2.73,12.7-7.18,29.87-10.31,42.33-.16.65.33,1.27.99,1.27h21.19c.66,0,1.15-.61,1-1.26Z"/>
    <path class="cls-1" d="M484.31,280.93l-51.05-138.75c-.25-.67.25-1.38.96-1.38h63.15c.46,0,.87.31.99.76l15.79,58.64c5.4,19.8,7.2,29.2,9.4,40.4h.4c2.2-10.4,4-19.8,9.2-39.6l14.21-59.41c.11-.46.52-.79,1-.79h63.91c.72,0,1.21.71.96,1.38l-52.03,138.75c-.15.4-.53.66-.96.66h-74.98c-.43,0-.81-.27-.96-.67Z"/>
    <path class="cls-1" d="M775.21,140.8h-63.91c-.47,0-.89.33-1,.79l-14.21,59.41c-5.2,19.8-7,29.2-9.2,39.6h-.4c-2.2-11.2-4-20.6-9.4-40.4l-15.79-58.64c-.12-.45-.53-.76-.99-.76h-39.65l-12.02,35.16.22.61,38.39,104.36c.15.4.53.67.96.67h74.98c.43,0,.81-.26.96-.66l52.03-138.75c.25-.67-.24-1.38-.96-1.38Z"/>
    <path class="cls-1" d="M928.97,140.8h-62.66c-.42,0-.79.26-.95.64-7.79,18.94-12.47,30.98-17.81,45.79-.32.89-1.58.91-1.92.03-6.19-15.86-10.68-29.21-17.93-45.84-.16-.37-.54-.62-.94-.62h-43.27l-9.73,28.17,36.48,58.63c1.8,2.8,2.4,4,2.4,6.8v46.17c0,.57.46,1.02,1.02,1.02h59.55c.57,0,1.02-.46,1.02-1.02v-45.17c0-3.4.8-5.4,1.6-6.8l54.02-86.23c.43-.68-.06-1.57-.87-1.57Z"/>
    <g>
      <path class="cls-1" d="M303.71,227.11c-3.5-18.18-19.79-32.49-64.62-40.31-15.6-2.8-21.6-5.2-21.6-10,0-4,3.4-6.6,10.2-6.6,8.98,0,12.3,4.19,13.62,9.8.11.47.52.81,1,.81h55.85c.61,0,1.09-.53,1.03-1.13-2.86-27.48-31.07-42.47-73.5-42.47-47,0-70.2,19.6-70.2,45.6,0,18,5.4,38.2,60.6,48.2,23,4.2,24.4,7.8,24.4,12.8s-4.4,8-12.6,8c-10.33,0-14.07-6.03-15.6-11.63-.12-.45-.52-.77-.99-.77h-59.58c-.64,0-1.13.58-1.01,1.21,4.72,25.21,27.99,44.59,78.39,44.59,26.81,0,47.56-6.19,60.44-17.18"/>
      <line class="cls-1" x1="289.53" y1="268.01" x2="289.52" y2="268.04"/>
      <path class="cls-1" d="M303.72,227.09h0c.02.11.04.2.06.3-.03-.19-.05-.3-.05-.3Z"/>
    </g>
  </g>
</svg>